<?xml version="1.0" encoding="UTF-8"?>
<svg version="1.1" xmlns="http://www.w3.org/2000/svg" width="1024" height="1024">
  <path
    d="M0 0 C2.82273038 2.82248201 2.40877567 4.95837673 2.4092865 8.89471436 C2.41739098 9.95650658 2.41739098 9.95650658 2.42565918 11.03974915 C2.43818987 13.38668358 2.4216082 15.73239971 2.40367126 18.07928467 C2.40382636 19.72058171 2.40531708 21.36187911 2.40808105 23.00317383 C2.40946767 26.4533497 2.39687972 29.90311131 2.37413025 33.35321045 C2.34601231 37.73386391 2.34840573 42.1138151 2.36122036 46.49451828 C2.36825246 49.89220958 2.36029916 53.28974474 2.34796333 56.68741608 C2.34350236 58.2994247 2.34306417 59.91145046 2.34702873 61.52346039 C2.3644045 74.82812642 1.68505237 88.34732288 -4.84242249 100.28240967 C-5.19095276 100.94812988 -5.53948303 101.6138501 -5.89857483 102.29974365 C-8.76576823 107.63168313 -12.11810412 112.33933772 -16.09242249 116.90740967 C-16.72470764 117.75239014 -16.72470764 117.75239014 -17.36976624 118.61444092 C-27.82702746 132.18663102 -48.32119971 145.18522502 -65.09242249 148.90740967 C-71.61555437 148.68571724 -76.58996772 146.69261815 -82.40492249 143.84490967 C-83.6534198 143.24307861 -83.6534198 143.24307861 -84.92713928 142.62908936 C-91.57145989 139.34216457 -97.32088871 135.57264583 -103.09242249 130.90740967 C-103.99154358 130.33699951 -103.99154358 130.33699951 -104.90882874 129.75506592 C-111.76437098 125.20188623 -113.76104492 115.19353254 -115.40492249 107.59490967 C-118.47281956 87.04297781 -113.87996015 69.2874013 -102.25257874 52.20428467 C-93.36322776 40.55228127 -82.59896292 30.52958003 -70.09242249 22.90740967 C-69.44740784 22.50957275 -68.80239319 22.11173584 -68.13783264 21.70184326 C-53.85014777 13.00985742 -17.001222 -8.87744751 0 0 Z "
    fill="#0B5592" transform="translate(341.09242248535156,445.09259033203125)" />
  <path
    d="M0 0 C42.78695652 0 42.78695652 0 53 9 C60.29547866 17.60165606 62.5539174 26.26367617 62.4375 37.3125 C62.42775146 38.33561279 62.41800293 39.35872559 62.40795898 40.4128418 C62.13682706 51.91710707 59.66640605 59.41883156 51.57421875 67.83203125 C37.03917374 80.07323 18.00704228 76 0 76 C0 50.92 0 25.84 0 0 Z "
    fill="#3DACDF" transform="translate(636,452)" />
  <path
    d="M0 0 C0.92649353 -0.0014502 1.85298706 -0.00290039 2.80755615 -0.00439453 C16.78432095 -0.0019752 29.97829674 0.81193029 43.5625 4.375 C43.5625 5.365 43.5625 6.355 43.5625 7.375 C42.56734375 7.63152344 41.5721875 7.88804687 40.546875 8.15234375 C6.78194862 17.24999042 -27.50238108 37.13650855 -45.6171875 67.90234375 C-52.33967098 80.72699572 -55.66537554 92.9295977 -56.0625 107.375 C-56.12050781 109.10943359 -56.12050781 109.10943359 -56.1796875 110.87890625 C-56.27330332 113.7107848 -56.35903675 116.54266794 -56.4375 119.375 C-59.55255179 116.48419294 -60.95581105 113.33549102 -62.5 109.4375 C-62.75587891 108.83615234 -63.01175781 108.23480469 -63.27539062 107.61523438 C-67.89104615 96.11762459 -67.71409373 83.97661717 -67.6328125 71.796875 C-67.62907346 70.13250907 -67.62623071 68.46814091 -67.62423706 66.80377197 C-67.61667062 62.46374224 -67.59708385 58.12385046 -67.5748291 53.78387451 C-67.55421842 49.33900823 -67.54520308 44.89411924 -67.53515625 40.44921875 C-67.51382998 31.75774982 -67.47978058 23.06639216 -67.4375 14.375 C-64.87702993 13.24126853 -62.31527253 12.11061783 -59.75268555 10.98168945 C-58.67137989 10.50234325 -58.67137989 10.50234325 -57.56822968 10.01331329 C-52.54663499 7.80491534 -47.57025829 5.92732909 -42.25 4.5625 C-41.57259766 4.37236328 -40.89519531 4.18222656 -40.19726562 3.98632812 C-26.88180875 0.40849068 -13.69297765 -0.02182003 0 0 Z "
    fill="#3AA7D9" transform="translate(272.4375,431.625)" />
  <path
    d="M0 0 C6.2972651 5.31769053 10.3003467 12.40234876 11.1484375 20.63671875 C11.25354424 29.85457967 10.19689174 38.12734256 4.625 45.75 C-2.85602902 52.73229375 -10.14701046 54.69925809 -20.15234375 54.58984375 C-24.31790796 54.29498399 -27.51781262 53.3252677 -31.1875 51.375 C-31.79207031 51.06949219 -32.39664063 50.76398437 -33.01953125 50.44921875 C-39.28153502 46.69747357 -43.04192421 39.81928196 -44.8359375 32.859375 C-46.17576744 23.39124346 -45.03254047 15.557038 -40.4375 7.1875 C-29.65377242 -6.29215947 -14.95427632 -7.62374871 0 0 Z "
    fill="#40ADE0" transform="translate(751.1875,474.625)" />
  <path
    d="M0 0 C1.87943498 1.39880346 3.66718138 2.82578278 5.40234375 4.3984375 C4.08090267 7.18951866 2.59852014 9.65630139 0.77734375 12.1484375 C0.10832031 13.06882812 0.10832031 13.06882812 -0.57421875 14.0078125 C-0.91195312 14.46671875 -1.2496875 14.925625 -1.59765625 15.3984375 C-3.61273163 14.39315381 -5.62561347 13.38421742 -7.6328125 12.36328125 C-8.30183594 12.02425781 -8.97085938 11.68523437 -9.66015625 11.3359375 C-10.33175781 10.99433594 -11.00335938 10.65273438 -11.6953125 10.30078125 C-16.60818424 7.97044578 -21.25565746 7.90903078 -26.59765625 8.3984375 C-30.41802827 9.90842916 -30.41802827 9.90842916 -33.59765625 12.3984375 C-34.09615353 17.18556453 -34.09615353 17.18556453 -32.2109375 21.4453125 C-28.32567296 24.34909766 -24.12948349 25.16455608 -19.47265625 26.3359375 C0.27038135 31.68787469 0.27038135 31.68787469 6.34375 40.53125 C9.22286981 45.60954989 9.26534739 51.23235788 7.75390625 56.77734375 C4.99235742 63.75202477 0.68252969 67.45710297 -5.66015625 71.2109375 C-15.52847994 75.20025984 -28.79249669 74.8634836 -38.72265625 71.2734375 C-43.86107331 69.02336529 -47.64243089 66.35366286 -51.59765625 62.3984375 C-51.00482004 59.00651387 -49.83022436 57.1876618 -47.53515625 54.6484375 C-46.71337891 53.72804688 -46.71337891 53.72804688 -45.875 52.7890625 C-45.45347656 52.33015625 -45.03195312 51.87125 -44.59765625 51.3984375 C-41.79133059 51.97742679 -40.58048853 52.41235728 -38.28515625 54.2734375 C-30.71944926 60.25562442 -22.9333911 60.21810863 -13.59765625 59.3984375 C-10.21059722 58.1899893 -9.67530203 57.51490617 -7.59765625 54.3984375 C-7.72703571 49.50685343 -7.72703571 49.50685343 -10.34765625 45.5859375 C-14.53226889 43.37739194 -18.65192713 42.09099062 -23.27026367 41.05517578 C-33.24358209 38.80241776 -41.57766636 36.15478643 -47.59765625 27.3984375 C-50.0879884 22.07336557 -50.37876772 17.19168088 -49.59765625 11.3984375 C-47.06075788 4.78438103 -41.75596206 -0.68845306 -35.34765625 -3.63671875 C-23.69622193 -7.65123538 -10.56021226 -6.51080756 0 0 Z "
    fill="#0F5694" transform="translate(432.59765625,455.6015625)" />
  <path
    d="M0 0 C5.63055842 6.29297706 6.70921246 13.26243054 6.515625 21.44140625 C6.50996521 22.36090561 6.50430542 23.28040497 6.49847412 24.22776794 C6.47628849 27.13156764 6.42612758 30.03408057 6.375 32.9375 C6.3549119 34.91990391 6.3366652 36.90232738 6.3203125 38.88476562 C6.27648241 43.71533086 6.20758128 48.54494816 6.125 53.375 C1.505 53.375 -3.115 53.375 -7.875 53.375 C-7.875 51.065 -7.875 48.755 -7.875 46.375 C-8.535 46.375 -9.195 46.375 -9.875 46.375 C-10.12378906 46.98859375 -10.37257813 47.6021875 -10.62890625 48.234375 C-12.88148677 52.10401176 -16.71685679 53.17553561 -20.875 54.375 C-27.09211954 55.15643353 -32.62660179 55.12385587 -37.875 51.375 C-43.32972719 45.80136868 -44.22951204 42.01525817 -44.15625 34.359375 C-43.67403487 29.24253666 -41.19778946 26.77795852 -37.8125 23.1875 C-29.41945449 18.00881234 -19.48495304 17.78184473 -9.875 17.375 C-10.13893501 13.94269552 -10.13893501 13.94269552 -10.875 10.375 C-15.32589796 7.4077347 -19.65602898 7.60925354 -24.875 8.375 C-27.455764 9.78313549 -28.84929513 11.18504878 -30.875 13.375 C-34.87000618 12.0052836 -37.67509492 10.11777578 -40.875 7.375 C-40.32251141 3.77993337 -39.2011422 2.4094155 -36.3125 0.25 C-25.62136578 -7.25654105 -11.11253988 -6.2810008 0 0 Z "
    fill="#105996" transform="translate(615.875,474.625)" />
  <path
    d="M0 0 C4.87573893 3.79224139 8.42415385 9.1481351 9.34899902 15.33447266 C9.45951109 17.88870037 9.4507637 20.4128845 9.390625 22.96875 C9.38496521 23.88966431 9.37930542 24.81057861 9.37347412 25.75939941 C9.35125236 28.67348307 9.30108383 31.58629397 9.25 34.5 C9.2299166 36.48696129 9.21166906 38.47394204 9.1953125 40.4609375 C9.1514343 45.30777499 9.08250689 50.15367242 9 55 C4.71 55 0.42 55 -4 55 C-4.66 53.02 -5.32 51.04 -6 49 C-6.86625 49.78375 -7.7325 50.5675 -8.625 51.375 C-13.78593267 55.61176566 -18.91242006 56.47629904 -25.47265625 56.30859375 C-31.06297957 55.62600404 -35.34028139 53.20204606 -39 48.9375 C-41.96639736 44.26165331 -41.82622745 39.33506866 -41 34 C-39.36977159 28.592907 -35.95360293 25.69005081 -31.11328125 23 C-23.04907036 19.18403329 -14.70222981 19.79604149 -6 20 C-6.3674999 15.32090878 -6.3674999 15.32090878 -8.1953125 11.08984375 C-12.22871872 8.65408545 -17.4878566 9.41145956 -22 10 C-24.82865928 11.9445527 -24.82865928 11.9445527 -27 14 C-31.25690031 14.08868542 -32.67702869 13.28786573 -35.875 10.4375 C-36.57625 9.633125 -37.2775 8.82875 -38 8 C-36.47887873 4.12805496 -34.4821972 2.24891903 -31 0 C-21.2269889 -4.21405066 -9.64823941 -4.92338143 0 0 Z "
    fill="#105895" transform="translate(489,473)" />
  <path
    d="M0 0 C4.16882733 2.77921822 6.43883179 6.61337038 8.015625 11.34375 C8.10193426 12.80156722 8.13333481 14.26302474 8.12915039 15.72338867 C8.12907486 16.60407516 8.12899933 17.48476166 8.12892151 18.39213562 C8.12376022 19.33909805 8.11859894 20.28606049 8.11328125 21.26171875 C8.1118663 22.23409988 8.11045135 23.20648102 8.10899353 24.20832825 C8.10339317 27.31600004 8.09084062 30.42359996 8.078125 33.53125 C8.07311005 35.63736875 8.06854713 37.74348863 8.06445312 39.84960938 C8.05342362 45.01435064 8.03615875 50.17903813 8.015625 55.34375 C3.065625 55.34375 -1.884375 55.34375 -6.984375 55.34375 C-6.98848389 54.1885083 -6.99259277 53.0332666 -6.99682617 51.84301758 C-7.01863824 47.54683131 -7.07294902 43.25155821 -7.13696289 38.95581055 C-7.16012488 37.09847787 -7.1745344 35.24101418 -7.17993164 33.38354492 C-7.18923462 30.709295 -7.23025197 28.03710032 -7.27734375 25.36328125 C-7.2734111 24.53601028 -7.26947845 23.70873932 -7.26542664 22.85639954 C-7.3748138 18.51038403 -7.59312316 16.83367498 -10.3996582 13.31933594 C-13.64201309 10.8410951 -15.13256594 10.66573072 -19.05078125 10.91015625 C-22.09056146 11.59180393 -23.85133544 13.14607287 -25.984375 15.34375 C-27.62095254 18.61690509 -27.2274557 22.24997231 -27.30078125 25.8515625 C-27.32156235 26.69218231 -27.34234344 27.53280212 -27.36375427 28.39889526 C-27.42922939 31.08876235 -27.4881252 33.77872843 -27.546875 36.46875 C-27.59006216 38.29037489 -27.63367652 40.11198971 -27.67773438 41.93359375 C-27.78490868 46.40354394 -27.88618185 50.87359386 -27.984375 55.34375 C-32.934375 55.34375 -37.884375 55.34375 -42.984375 55.34375 C-42.984375 36.53375 -42.984375 17.72375 -42.984375 -1.65625 C-38.694375 -1.65625 -34.404375 -1.65625 -29.984375 -1.65625 C-29.324375 0.65375 -28.664375 2.96375 -27.984375 5.34375 C-27.53707031 4.93382812 -27.08976563 4.52390625 -26.62890625 4.1015625 C-18.33589813 -3.2896473 -10.26498535 -5.024818 0 0 Z "
    fill="#135A95" transform="translate(553.984375,472.65625)" />
  <path
    d="M0 0 C4.50573864 2.78152096 7.52415172 6.1876656 9.0390625 11.2734375 C9.0803125 11.9540625 9.1215625 12.6346875 9.1640625 13.3359375 C7.75009348 13.84351612 6.33274521 14.34168675 4.9140625 14.8359375 C4.12515625 15.114375 3.33625 15.3928125 2.5234375 15.6796875 C0.1640625 16.3359375 0.1640625 16.3359375 -3.8359375 16.3359375 C-6.5234375 13.8984375 -6.5234375 13.8984375 -8.8359375 11.3359375 C-10.04302314 9.90521409 -10.04302314 9.90521409 -13.5859375 10.1484375 C-18.50143924 10.22110832 -18.50143924 10.22110832 -22.8359375 12.3359375 C-26.57980984 19.09906173 -26.91375477 27.26434771 -25.33203125 34.70703125 C-24.29363461 37.94089506 -23.1290784 40.07536781 -20.5859375 42.3359375 C-17.03896612 43.62574528 -14.59059283 43.79703552 -10.8359375 43.3359375 C-7.13203729 41.30927512 -5.18230739 39.85549234 -2.8359375 36.3359375 C-1.2102568 36.64487682 0.41458998 36.958207 2.0390625 37.2734375 C2.94398438 37.44746094 3.84890625 37.62148438 4.78125 37.80078125 C7.1640625 38.3359375 7.1640625 38.3359375 9.1640625 39.3359375 C8.87465684 45.2687535 6.29558926 48.38447728 2.1640625 52.3359375 C-4.79251683 57.4261175 -13.54195136 57.12282604 -21.8359375 56.3359375 C-28.64832718 54.30768263 -34.22340794 50.51110522 -37.8359375 44.3359375 C-42.46610618 34.22191278 -43.52837998 24.26627406 -39.85546875 13.68359375 C-36.49578926 5.94732028 -31.80268731 1.89009541 -24.12109375 -1.59375 C-15.97113245 -4.24902871 -7.76247145 -3.56517418 0 0 Z "
    fill="#40AEE1" transform="translate(810.8359375,472.6640625)" />
  <path
    d="M0 0 C20.8907767 0 20.8907767 0 27.64453125 6.609375 C33.28720893 13.69931007 33.610126 22.30570449 33 31 C32.20353741 36.69470749 30.3286022 41.35747587 27 46 C19 51 19 51 0 51 C0 34.17 0 17.34 0 0 Z "
    fill="#FAFDFD" transform="translate(651,464)" />
  <path
    d="M0 0 C3.1875 1.1875 3.1875 1.1875 5.1875 4.1875 C4.88659982 7.92220217 3.92562802 9.93784201 1.375 12.625 C-1.99663592 16.29251418 -5.26860639 20.02179668 -8.5 23.8125 C-9.54536431 25.03403272 -10.59094046 26.25538418 -11.63671875 27.4765625 C-12.16313965 28.09176758 -12.68956055 28.70697266 -13.23193359 29.34082031 C-16.24816824 32.86488563 -19.26793022 36.38592813 -22.28710938 39.9074707 C-24.92572772 42.98542422 -27.56323406 46.06432178 -30.19921875 49.14453125 C-30.75158203 49.78970703 -31.30394531 50.43488281 -31.87304688 51.09960938 C-32.93848623 52.34411416 -34.00360277 53.5888954 -35.06835938 54.83398438 C-39.62425806 60.15433697 -39.62425806 60.15433697 -42.89453125 60.73046875 C-48.63415671 59.93504708 -50.83054287 56.75449671 -54.5 52.5 C-55.47549805 51.4181543 -55.47549805 51.4181543 -56.47070312 50.31445312 C-58.27983822 48.29508215 -60.04943072 46.2470638 -61.8125 44.1875 C-62.62847656 43.2696875 -63.44445312 42.351875 -64.28515625 41.40625 C-65.8125 39.1875 -65.8125 39.1875 -65.5625 35.375 C-65.315 34.323125 -65.0675 33.27125 -64.8125 32.1875 C-61.77734375 31.25390625 -61.77734375 31.25390625 -57.8125 31.1875 C-54.89467578 33.08623397 -52.6954158 35.54921569 -50.375 38.125 C-49.73884766 38.79724609 -49.10269531 39.46949219 -48.44726562 40.16210938 C-46.8827926 41.82068605 -45.33994879 43.49488727 -43.8125 45.1875 C-37.26722964 38.71088632 -31.16325067 31.91103932 -25.375 24.75 C-21.47289557 19.92855159 -17.3861411 15.32466084 -13.16015625 10.78515625 C-10.8160021 8.25689953 -10.8160021 8.25689953 -8.87109375 5.68359375 C-4.62972261 0.22769128 -4.62972261 0.22769128 0 0 Z "
    fill="#F8FAF9" transform="translate(309.8125,491.8125)" />
  <path
    d="M0 0 C3.35429125 1.6532352 5.45546089 3.90341089 7.1328125 7.28125 C9.17577025 13.68619861 9.12842162 21.44127394 6.375 27.625 C4.23165632 31.18971897 2.02239623 32.73807177 -2 34 C-6.52436526 34.64633789 -8.36379202 34.40374737 -12.25 31.9375 C-17.07767282 27.2905422 -18.1887331 22.56633991 -18.5 16.0625 C-18.36224172 10.28390266 -16.8998168 6.28430578 -13 2 C-8.74696324 -0.83535784 -4.99241992 -0.76089759 0 0 Z "
    fill="#F8FCFC" transform="translate(739,483)" />
  <path
    d="M0 0 C0.99 0 1.98 0 3 0 C3 0.66 3 1.32 3 2 C3.99 1.34 4.98 0.68 6 0 C12.96774194 -0.77419355 12.96774194 -0.77419355 16.5 1.875 C18.62368671 6.29934731 18.67345036 10.17492623 18 15 C15.97368421 19.51315789 15.97368421 19.51315789 13 21 C8.67183871 21.28227139 7.01063926 21.00531963 3 19 C3 21.97 3 24.94 3 28 C2.01 28 1.02 28 0 28 C0 18.76 0 9.52 0 0 Z "
    fill="#909193" transform="translate(741,557)" />
  <path
    d="M0 0 C2.90150615 0.77653329 4.66155222 2.25685508 6.3515625 4.73046875 C7.88483682 8.2340376 7.64341789 10.77243957 7.16015625 14.578125 C5.5232844 18.16365381 4.47043042 19.37127555 1.16015625 21.578125 C-3.99743687 22.1511909 -3.99743687 22.1511909 -6.83984375 21.578125 C-10.44809396 18.15491327 -11.65828968 15.18185266 -12.21484375 10.265625 C-11.4493875 2.73863855 -7.2791623 -0.5346964 0 0 Z "
    fill="#949697" transform="translate(488.83984375,556.421875)" />
  <path
    d="M0 0 C0.99 0 1.98 0 3 0 C3.33 0.66 3.66 1.32 4 2 C4.66 1.34 5.32 0.68 6 0 C10.33643601 -0.31537716 12.32653229 -0.44897847 16 2 C16.66 1.34 17.32 0.68 18 0 C23.68348624 -0.5412844 23.68348624 -0.5412844 26 0 C28.09759279 1.77778043 28.9015225 3.18291695 29.23168945 5.92236328 C29.2956771 8.20603404 29.26133779 10.46670828 29.1875 12.75 C29.16719727 13.93916016 29.16719727 13.93916016 29.14648438 15.15234375 C29.11125223 17.10185564 29.05744821 19.05101626 29 21 C27.68 21 26.36 21 25 21 C24.67 15.39 24.34 9.78 24 4 C22.35 4 20.7 4 19 4 C16.15385976 6.84614024 16.54420924 9.80369142 16.375 13.625 C16.33632813 14.33140625 16.29765625 15.0378125 16.2578125 15.765625 C16.16352276 17.50998524 16.08067109 19.25495691 16 21 C15.01 21 14.02 21 13 21 C12.93941406 19.85660156 12.87882813 18.71320312 12.81640625 17.53515625 C12.73201572 16.04425695 12.64736698 14.55337225 12.5625 13.0625 C12.52318359 12.30775391 12.48386719 11.55300781 12.44335938 10.77539062 C12.55961976 7.08055813 12.55961976 7.08055813 11 4 C8.5 3.83333333 8.5 3.83333333 6 4 C3.94077598 6.05922402 4.58572421 10.21708124 4.4375 13.0625 C4.39431641 13.82111328 4.35113281 14.57972656 4.30664062 15.36132812 C4.20026367 17.24065438 4.09960066 19.12030244 4 21 C2.68 21 1.36 21 0 21 C0 14.07 0 7.14 0 0 Z "
    fill="#949798" transform="translate(706,557)" />
  <path
    d="M0 0 C3.0625 2 3.0625 2 5 4 C4.67 5.32 4.34 6.64 4 8 C3.13375 7.34 2.2675 6.68 1.375 6 C-2.27380643 3.83774434 -3.86028642 3.19005604 -8 4 C-10.77789117 6.19307198 -11.8497668 7.85447183 -12.3125 11.3828125 C-12.42059972 15.90948814 -12.32734588 19.99179321 -10 24 C-7.2540274 25.3729863 -5.0410953 25.12412634 -2 25 C-1.01 24.67 -0.02 24.34 1 24 C1.33 21.69 1.66 19.38 2 17 C0.02 17 -1.96 17 -4 17 C-4 16.01 -4 15.02 -4 14 C-0.7 14 2.6 14 6 14 C6 19.28 6 24.56 6 30 C5.01 29.67 4.02 29.34 3 29 C3 28.01 3 27.02 3 26 C2.34 26.495 1.68 26.99 1 27.5 C-2.80100678 29.40050339 -5.82546788 29.90420028 -10 29 C-13.68565074 26.19570053 -15.89912377 23.50358459 -17 19 C-17.55417018 13.91868569 -17.59956406 10.17771512 -15.25 5.5625 C-10.57610927 0.23945778 -7.122285 -1.20394497 0 0 Z "
    fill="#8F9294" transform="translate(399,549)" />
  <path
    d="M0 0 C0.78223081 7.97875423 0.78223081 7.97875423 -2.25 11.9375 C-7.03834207 15.52875655 -9.8457694 16.64781375 -16 16 C-19 14.4375 -19 14.4375 -21 12 C-21.1875 8.5 -21.1875 8.5 -20 5 C-14.42915552 -0.29230226 -7.31919143 -0.23610295 0 0 Z "
    fill="#F4F8F9" transform="translate(483,502)" />
  <path
    d="M0 0 C0.66964286 7.76785714 0.66964286 7.76785714 -2.1875 11.375 C-5.8375322 14.78169672 -8.12610916 15.84702932 -13.0625 16.25 C-15.96043664 16.00336709 -17.59861796 15.60092136 -20 14 C-21.462958 11.074084 -21.44523109 9.24382653 -21 6 C-17.74633707 2.24577355 -15.42643758 0.78767514 -10.5 0.1875 C-7.00167455 -0.02559597 -3.5041782 -0.08985072 0 0 Z "
    fill="#F1F6F8" transform="translate(607,502)" />
  <path
    d="M0 0 C0.76183594 -0.03996094 1.52367187 -0.07992187 2.30859375 -0.12109375 C4.5625 0.4375 4.5625 0.4375 6.83203125 2.4453125 C9.11106255 6.38603028 9.01947174 9.29612727 8.8125 13.75 C8.79445313 14.49056641 8.77640625 15.23113281 8.7578125 15.99414062 C8.71097337 17.8091571 8.63923789 19.62350166 8.5625 21.4375 C7.5725 21.4375 6.5825 21.4375 5.5625 21.4375 C5.5625 20.7775 5.5625 20.1175 5.5625 19.4375 C5.046875 19.7675 4.53125 20.0975 4 20.4375 C0.69030596 21.7953232 -1.89390517 21.75964498 -5.4375 21.4375 C-7.375 20.3125 -7.375 20.3125 -8.4375 18.4375 C-8.875 15.4375 -8.875 15.4375 -8.4375 12.4375 C-6.02785866 9.39925657 -3.35819764 9.17776634 0.3125 8.75 C1.72820961 8.63354647 3.14472818 8.52535338 4.5625 8.4375 C4.2325 7.1175 3.9025 5.7975 3.5625 4.4375 C-2.01580016 4.31280901 -2.01580016 4.31280901 -7.4375 5.4375 C-7.4375 4.4475 -7.4375 3.4575 -7.4375 2.4375 C-4.4017775 0.413685 -3.47977513 0.09975747 0 0 Z "
    fill="#919495" transform="translate(645.4375,556.5625)" />
  <path
    d="M0 0 C3.48825925 0.92832706 4.94573896 2.59022598 6.9375 5.515625 C6.9375 7.825625 6.9375 10.135625 6.9375 12.515625 C2.3175 12.515625 -2.3025 12.515625 -7.0625 12.515625 C-6.7325 14.165625 -6.4025 15.815625 -6.0625 17.515625 C-1.90111737 17.59722074 1.8847484 17.49811024 5.9375 16.515625 C4.1875 20.390625 4.1875 20.390625 1.9375 21.515625 C-1.375 21.890625 -1.375 21.890625 -5.0625 21.515625 C-9.17848872 18.1154604 -10.90697949 16.07083011 -11.4375 10.765625 C-11.3798005 7.60369246 -10.90098634 5.60678025 -9.0625 3.015625 C-5.72418114 0.23369262 -4.2218845 -0.35182371 0 0 Z "
    fill="#9A9B9A" transform="translate(421.0625,556.484375)" />
  <path
    d="M0 0 C3.0625 1.3125 3.0625 1.3125 5 3 C5 3.99 5 4.98 5 6 C4.505 5.855625 4.01 5.71125 3.5 5.5625 C-0.02808429 4.76868103 -3.38512503 4.28689484 -7 4 C-7.99 4.66 -8.98 5.32 -10 6 C-9.78384533 7.96647127 -9.78384533 7.96647127 -9 10 C-7.35488985 11.02825108 -7.35488985 11.02825108 -5.3125 11.5625 C-1.68599278 12.76263908 1.65412506 14.12304576 5 16 C6.40457737 18.80915474 6.24895157 20.88810534 6 24 C4.22015595 27.1359157 3.47691793 27.84102736 0 29 C-5.02719969 29.51976132 -8.78694191 29.77635718 -13.125 27 C-13.74375 26.34 -14.3625 25.68 -15 25 C-14.505 23.515 -14.505 23.515 -14 22 C-12 23 -10 24 -8 25 C-3.34724024 25.3052622 -3.34724024 25.3052622 1 24 C1 22.35 1 20.7 1 19 C-0.794375 18.3503125 -0.794375 18.3503125 -2.625 17.6875 C-12.51907823 13.96184354 -12.51907823 13.96184354 -14 11 C-14.52457223 7.06570828 -14.30690703 5.45541043 -12.0625 2.125 C-7.95349502 -0.72614632 -4.86015561 -0.81734986 0 0 Z "
    fill="#8D9396" transform="translate(685,549)" />
  <path
    d="M0 0 C3.74957941 1.0734683 4.95291488 3.26771839 6.9375 6.5546875 C6.9375 8.2046875 6.9375 9.8546875 6.9375 11.5546875 C1.9875 11.5546875 -2.9625 11.5546875 -8.0625 11.5546875 C-7.4025 13.2046875 -6.7425 14.8546875 -6.0625 16.5546875 C-1.28487362 17.57155796 -1.28487362 17.57155796 3.375 16.6171875 C3.890625 16.2665625 4.40625 15.9159375 4.9375 15.5546875 C4.9375 16.8746875 4.9375 18.1946875 4.9375 19.5546875 C1.7591808 21.67356697 -0.25479741 22.11057061 -4.0546875 21.984375 C-6.90219842 21.3749855 -8.56184506 19.89661175 -10.2109375 17.53515625 C-11.91454007 13.57310807 -11.91201126 9.73957493 -11.0625 5.5546875 C-8.15440926 1.01079572 -5.24229317 -0.33757191 0 0 Z "
    fill="#8E9090" transform="translate(786.0625,556.4453125)" />
  <path
    d="M0 0 C3.48838014 1.44085267 4.65202911 2.28748818 6.3125 5.6875 C6.6528125 6.8321875 6.6528125 6.8321875 7 8 C5.68 8 4.36 8 3 8 C2.38125 7.34 1.7625 6.68 1.125 6 C-0.89241611 3.74097637 -0.89241611 3.74097637 -4 3.4375 C-7.0964035 3.7777195 -7.0964035 3.7777195 -9.375 5.875 C-11.66663591 10.28199214 -11.68848285 14.12458073 -11 19 C-9.83567931 21.48050929 -8.90574048 23.09425952 -7 25 C-4.12635209 25.41746608 -4.12635209 25.41746608 -1 25 C0.37310707 23.70766393 1.71034824 22.37562854 3 21 C4.32 21 5.64 21 7 21 C5.71814661 24.95238127 4.55188824 26.82905605 1 29 C-2.40336711 29.66407163 -5.5862581 29.59201035 -9 29 C-12.75959289 26.25863018 -14.89566177 23.51774732 -16 19 C-16.55417018 13.91868569 -16.59956406 10.17771512 -14.25 5.5625 C-9.85578154 0.55797343 -6.82078833 -0.98989572 0 0 Z "
    fill="#8C9092" transform="translate(550,549)" />
  <path
    d="M0 0 C2.475 0.495 2.475 0.495 5 1 C5.33 0.67 5.66 0.34 6 0 C13.38997226 -0.4767724 13.38997226 -0.4767724 15.60717773 1.25610352 C17.33909121 3.4245624 17.35136376 4.48590313 17.29296875 7.23046875 C17.28330078 8.03291016 17.27363281 8.83535156 17.26367188 9.66210938 C17.23853516 10.49548828 17.21339844 11.32886719 17.1875 12.1875 C17.16719727 13.4549707 17.16719727 13.4549707 17.14648438 14.74804688 C17.11115799 16.83230384 17.05735139 18.91623277 17 21 C16.01 21 15.02 21 14 21 C13.93941406 19.85660156 13.87882813 18.71320312 13.81640625 17.53515625 C13.73201572 16.04425695 13.64736698 14.55337225 13.5625 13.0625 C13.52318359 12.30775391 13.48386719 11.55300781 13.44335938 10.77539062 C13.55961976 7.08055813 13.55961976 7.08055813 12 4 C9.69 4.33 7.38 4.66 5 5 C4.67 10.28 4.34 15.56 4 21 C2.68 21 1.36 21 0 21 C0 14.07 0 7.14 0 0 Z "
    fill="#909395" transform="translate(501,557)" />
  <path
    d="M0 0 C0.99 0 1.98 0 3 0 C3 0.66 3 1.32 3 2 C3.99 1.34 4.98 0.68 6 0 C12.24023155 -0.55716353 12.24023155 -0.55716353 14.875 1.375 C17.49501996 5.15947328 17.1123987 8.68017692 17.0625 13.125 C17.05798828 13.87910156 17.05347656 14.63320313 17.04882812 15.41015625 C17.03703499 17.27347127 17.01909942 19.13674555 17 21 C15.68 21 14.36 21 13 21 C12.93941406 19.85660156 12.87882813 18.71320312 12.81640625 17.53515625 C12.73201572 16.04425695 12.64736698 14.55337225 12.5625 13.0625 C12.52318359 12.30775391 12.48386719 11.55300781 12.44335938 10.77539062 C12.55961976 7.08055813 12.55961976 7.08055813 11 4 C8.54190002 3.7499227 8.54190002 3.7499227 6 4 C3.15385976 6.84614024 3.54420924 9.80369142 3.375 13.625 C3.33632813 14.33140625 3.29765625 15.0378125 3.2578125 15.765625 C3.16352276 17.50998524 3.08067109 19.25495691 3 21 C2.01 21 1.02 21 0 21 C0 14.07 0 7.14 0 0 Z "
    fill="#8C8F91" transform="translate(584,557)" />
  <path
    d="M0 0 C0.7734375 0.00386719 1.546875 0.00773438 2.34375 0.01171875 C4.5 0.3125 4.5 0.3125 7.5 2.3125 C7.5 3.3025 7.5 4.2925 7.5 5.3125 C3.87 4.6525 0.24 3.9925 -3.5 3.3125 C-3.17 4.6325 -2.84 5.9525 -2.5 7.3125 C-0.2138018 8.45180436 -0.2138018 8.45180436 2.5 9.1875 C5.234375 10.17578125 5.234375 10.17578125 7.5 11.3125 C8.75 14.375 8.75 14.375 8.5 17.3125 C6.5 20.3125 6.5 20.3125 3.5 21.3125 C-3.77797834 21.89011733 -3.77797834 21.89011733 -7 19.3125 C-7.495 18.6525 -7.99 17.9925 -8.5 17.3125 C-8.17 16.6525 -7.84 15.9925 -7.5 15.3125 C-6.7265625 15.8075 -6.7265625 15.8075 -5.9375 16.3125 C-2.71973488 17.63260877 0.0570528 17.44492105 3.5 17.3125 C3.83 15.9925 4.16 14.6725 4.5 13.3125 C3.57767578 13.14814453 3.57767578 13.14814453 2.63671875 12.98046875 C1.82847656 12.82191406 1.02023437 12.66335938 0.1875 12.5 C-1.01326172 12.27376953 -1.01326172 12.27376953 -2.23828125 12.04296875 C-4.77573287 11.22344638 -5.87347026 10.40375253 -7.5 8.3125 C-7.875 5.8125 -7.875 5.8125 -7.5 3.3125 C-5.25173685 0.35016586 -3.65605503 -0.07921453 0 0 Z "
    fill="#949595" transform="translate(440.5,556.6875)" />
  <path
    d="M0 0 C2.5 2 2.5 2 4 4 C3.67 4.66 3.34 5.32 3 6 C2.46375 5.67 1.9275 5.34 1.375 5 C-1.61641148 3.74045833 -3.78432784 3.65047042 -7 4 C-9.45811625 7.68717438 -9.31118164 9.64345704 -9 14 C-8.01 15.485 -8.01 15.485 -7 17 C-3.41642759 17.25015873 -3.41642759 17.25015873 0 17 C0 16.34 0 15.68 0 15 C1.32 15.33 2.64 15.66 4 16 C2.25 19.875 2.25 19.875 0 21 C-7.11146121 21.69948799 -7.11146121 21.69948799 -10.9375 18.6875 C-14.15321506 14.49732582 -14.44779299 11.19439869 -14 6 C-10.28982089 0.3110587 -6.73422078 -1.02477273 0 0 Z "
    fill="#929595" transform="translate(629,557)" />
  <path
    d="M0 0 C2.58549901 2.24076581 2.95822679 3.59897714 3.3125 7 C2.81541802 11.77198697 2.81541802 11.77198697 1 14 C-1.9375 14.9375 -1.9375 14.9375 -5 15 C-7.08130637 13.49284711 -7.85613218 12.28773563 -9 10 C-9.4524237 3.77917415 -9.4524237 3.77917415 -7.875 1.0625 C-5.07837528 -0.52225401 -3.1506804 -0.45947423 0 0 Z "
    fill="#F7F7F7" transform="translate(753,560)" />
  <path
    d="M0 0 C1.16343227 2.32686453 1.19895988 3.84721413 1.25 6.4375 C1.28867187 7.61119141 1.28867187 7.61119141 1.328125 8.80859375 C0.9218844 11.52170059 0.16223415 12.36287986 -2 14 C-4.5 14.4375 -4.5 14.4375 -7 14 C-9.15926208 12.21302449 -9.87841815 10.82775588 -10.28515625 8.05859375 C-10.41172689 5.07042595 -10.32028076 2.62172147 -8.9375 -0.0625 C-5.7970884 -1.582054 -3.29352683 -0.79288609 0 0 Z "
    fill="#FCFCFC" transform="translate(491,561)" />
  <path
    d="M0 0 C0.99 0 1.98 0 3 0 C3 1.98 3 3.96 3 6 C4.98 6 6.96 6 9 6 C9 6.99 9 7.98 9 9 C7.35 9 5.7 9 4 9 C4.33 13.62 4.66 18.24 5 23 C6.32 23.33 7.64 23.66 9 24 C9 24.99 9 25.98 9 27 C3.59016393 27.36065574 3.59016393 27.36065574 1.3125 25.96875 C-0.708874 22.936689 -0.31526465 19.82111386 -0.1875 16.3125 C-0.16719727 15.2596582 -0.16719727 15.2596582 -0.14648438 14.18554688 C-0.11120182 12.45670171 -0.05739583 10.72825235 0 9 C-1.32 8.67 -2.64 8.34 -4 8 C-4 7.34 -4 6.68 -4 6 C-2.68 6 -1.36 6 0 6 C0 4.02 0 2.04 0 0 Z "
    fill="#939596" transform="translate(455,551)" />
  <path
    d="M0 0 C0.76183594 -0.03996094 1.52367187 -0.07992187 2.30859375 -0.12109375 C4.5625 0.4375 4.5625 0.4375 6.83203125 2.4453125 C9.11106255 6.38603028 9.01947174 9.29612727 8.8125 13.75 C8.79445313 14.49056641 8.77640625 15.23113281 8.7578125 15.99414062 C8.71097337 17.8091571 8.63923789 19.62350166 8.5625 21.4375 C7.5725 21.4375 6.5825 21.4375 5.5625 21.4375 C5.5625 20.7775 5.5625 20.1175 5.5625 19.4375 C3.2525 19.7675 0.9425 20.0975 -1.4375 20.4375 C-0.633125 19.921875 0.17125 19.40625 1 18.875 C4.28971137 15.74576235 4.405679 13.90689853 4.5625 9.4375 C4.20275105 6.62512459 4.20275105 6.62512459 3.5625 4.4375 C-2.01580016 4.31280901 -2.01580016 4.31280901 -7.4375 5.4375 C-7.4375 4.4475 -7.4375 3.4575 -7.4375 2.4375 C-4.4017775 0.413685 -3.47977513 0.09975747 0 0 Z "
    fill="#8A8E91" transform="translate(645.4375,556.5625)" />
  <path
    d="M0 0 C2.49740331 1.77619615 3.35501911 3.27550041 5 6 C5.3125 8.875 5.3125 8.875 5 11 C4.45859375 10.84660156 3.9171875 10.69320312 3.359375 10.53515625 C0.65295977 9.92128392 -1.9850509 9.66791243 -4.75 9.4375 C-5.73484375 9.35371094 -6.7196875 9.26992188 -7.734375 9.18359375 C-8.48203125 9.12300781 -9.2296875 9.06242188 -10 9 C-9.67 7.02 -9.34 5.04 -9 3 C-9.99 3.495 -9.99 3.495 -11 4 C-10.67 3.01 -10.34 2.02 -10 1 C-6.75785852 -0.62107074 -3.49203811 -0.70775533 0 0 Z M2 7 C3 9 3 9 3 9 Z "
    fill="#919495" transform="translate(788,557)" />
  <path
    d="M0 0 C3.0625 1.3125 3.0625 1.3125 5 3 C5 3.99 5 4.98 5 6 C4.505 5.855625 4.01 5.71125 3.5 5.5625 C-0.02808429 4.76868103 -3.38512503 4.28689484 -7 4 C-7.99 4.66 -8.98 5.32 -10 6 C-9.72382467 7.94074861 -9.72382467 7.94074861 -9 10 C-8.01 10.66 -7.02 11.32 -6 12 C-6 12.99 -6 13.98 -6 15 C-8.62655933 14.64505955 -10.57968261 14.27538036 -12.8125 12.8125 C-14.63962591 10.02372887 -14.52190658 8.26191611 -14 5 C-10.25626776 -0.55521558 -6.23224538 -1.04809913 0 0 Z "
    fill="#878A8D" transform="translate(685,549)" />
  <path
    d="M0 0 C0.99 0 1.98 0 3 0 C3.33 8.25 3.66 16.5 4 25 C4.99 25.33 5.98 25.66 7 26 C7 26.99 7 27.98 7 29 C4.625 29.125 4.625 29.125 2 29 C0 27 0 27 -0.22705078 24.29443359 C-0.21657715 23.17375488 -0.20610352 22.05307617 -0.1953125 20.8984375 C-0.18886719 19.68671875 -0.18242188 18.475 -0.17578125 17.2265625 C-0.15902344 15.95554687 -0.14226563 14.68453125 -0.125 13.375 C-0.11146484 11.456875 -0.11146484 11.456875 -0.09765625 9.5 C-0.07402303 6.33314833 -0.04107629 3.16666576 0 0 Z "
    fill="#7F8283" transform="translate(562,549)" />
  <path
    d="M0 0 C0.99 0 1.98 0 3 0 C3.33 8.25 3.66 16.5 4 25 C4.99 25.33 5.98 25.66 7 26 C7 26.99 7 27.98 7 29 C4.625 29.125 4.625 29.125 2 29 C0 27 0 27 -0.22705078 24.29443359 C-0.21657715 23.17375488 -0.20610352 22.05307617 -0.1953125 20.8984375 C-0.18886719 19.68671875 -0.18242188 18.475 -0.17578125 17.2265625 C-0.15902344 15.95554687 -0.14226563 14.68453125 -0.125 13.375 C-0.11146484 11.456875 -0.11146484 11.456875 -0.09765625 9.5 C-0.07402303 6.33314833 -0.04107629 3.16666576 0 0 Z "
    fill="#898C8B" transform="translate(765,549)" />
  <path
    d="M0 0 C1.32 0 2.64 0 4 0 C4 7.26 4 14.52 4 22 C2.68 22 1.36 22 0 22 C0 14.74 0 7.48 0 0 Z "
    fill="#989B9D" transform="translate(573,556)" />
  <path
    d="M0 0 C1.32 0 2.64 0 4 0 C4 6.93 4 13.86 4 21 C2.68 21 1.36 21 0 21 C0 14.07 0 7.14 0 0 Z "
    fill="#939798" transform="translate(696,557)" />
  <path
    d="M0 0 C0.99 0 1.98 0 3 0 C2.97679687 0.58007812 2.95359375 1.16015625 2.9296875 1.7578125 C2.81749577 6.61411166 3.12485085 10.42932395 5 15 C4.01 15 3.02 15 2 15 C2 17.97 2 20.94 2 24 C1.01 24 0.02 24 -1 24 C-1.02712325 21.12493579 -1.04689851 18.25013092 -1.0625 15.375 C-1.07087891 14.56675781 -1.07925781 13.75851562 -1.08789062 12.92578125 C-1.1058955 8.49658082 -0.89622662 4.36116576 0 0 Z "
    fill="#878A8A" transform="translate(742,561)" />
  <path
    d="M0 0 C3.3 0 6.6 0 10 0 C10 5.28 10 10.56 10 16 C9.34 16 8.68 16 8 16 C8 14.35 8 12.7 8 11 C7.34 11 6.68 11 6 11 C6 8.36 6 5.72 6 3 C4.02 3 2.04 3 0 3 C0 2.01 0 1.02 0 0 Z "
    fill="#7E8587" transform="translate(395,563)" />
  <path
    d="M0 0 C7.14514693 -0.60552093 7.14514693 -0.60552093 11 2.125 C13.29742742 5.42755191 13.45761159 7.0645403 13 11 C9.7 11 6.4 11 3 11 C3 10.34 3 9.68 3 9 C5.31 9 7.62 9 10 9 C9.00864359 6.3726974 9.00864359 6.3726974 7 4 C3.37400578 3.58274322 3.37400578 3.58274322 0 4 C0 2.68 0 1.36 0 0 Z "
    fill="#949597" transform="translate(415,557)" />
  <path
    d="M0 0 C1.32 0.33 2.64 0.66 4 1 C4 1.99 4 2.98 4 4 C2.33333333 5.66666667 0.66666667 7.33333333 -1 9 C-1.86119134 11.17346568 -1.86119134 11.17346568 -2 13 C-2.99 13 -3.98 13 -5 13 C-5.66 12.34 -6.32 11.68 -7 11 C-6.6700572 7.60229115 -5.1807479 5.7318913 -2.9375 3.25 C-2.38964844 2.63640625 -1.84179688 2.0228125 -1.27734375 1.390625 C-0.85582031 0.93171875 -0.43429687 0.4728125 0 0 Z "
    fill="#13609B" transform="translate(388,507)" />
  <path
    d="M0 0 C0.99 0.33 1.98 0.66 3 1 C3 6.28 3 11.56 3 17 C1.68 17 0.36 17 -1 17 C-1.02684679 14.35409986 -1.04676357 11.70846904 -1.0625 9.0625 C-1.07087891 8.30775391 -1.07925781 7.55300781 -1.08789062 6.77539062 C-1.09652441 4.85005687 -1.05224333 2.92464419 -1 1 C-0.67 0.67 -0.34 0.34 0 0 Z "
    fill="#949999" transform="translate(598,561)" />
  <path
    d="M0 0 C0.99 0 1.98 0 3 0 C3 6.93 3 13.86 3 21 C2.01 21 1.02 21 0 21 C0 14.07 0 7.14 0 0 Z "
    fill="#8A8E8E" transform="translate(607,557)" />
  <path
    d="M0 0 C0.99 0 1.98 0 3 0 C3 6.93 3 13.86 3 21 C2.01 21 1.02 21 0 21 C0 14.07 0 7.14 0 0 Z "
    fill="#898D8C" transform="translate(469,557)" />
  <path
    d="M0 0 C3.1875 -0.375 3.1875 -0.375 7 0 C10.08020357 2.62144985 11.74254459 4.15820361 12.3046875 8.1796875 C12.3125 10.375 12.3125 10.375 12 14 C11.01 14.495 11.01 14.495 10 15 C9.01 11.37 8.02 7.74 7 4 C4.69 3.67 2.38 3.34 0 3 C0 2.01 0 1.02 0 0 Z "
    fill="#898C8D" transform="translate(484,557)" />
  <path
    d="M0 0 C0.1875 2.375 0.1875 2.375 0 5 C-3.4352048 7.29013653 -4.985331 7.17842973 -9 7 C-9.33 5.68 -9.66 4.36 -10 3 C-6.48812804 0.59185923 -4.27343092 -0.36629408 0 0 Z "
    fill="#F5F4F2" transform="translate(650,568)" />
  <path
    d="M0 0 C3 0.25 3 0.25 5 2.25 C5 3.57 5 4.89 5 6.25 C1.37 6.25 -2.26 6.25 -6 6.25 C-4.53191489 0.37765957 -4.53191489 0.37765957 0 0 Z "
    fill="#F1F1F0" transform="translate(784,559.75)" />
  <path
    d="M0 0 C3.125 0.25 3.125 0.25 5 1.5625 C6.125 3.25 6.125 3.25 6.125 6.25 C2.495 6.25 -1.135 6.25 -4.875 6.25 C-3.68915929 0.32079646 -3.68915929 0.32079646 0 0 Z "
    fill="#F4F3F3" transform="translate(418.875,559.75)" />
  <path
    d="M0 0 C0.66 0 1.32 0 2 0 C2.33 4.29 2.66 8.58 3 13 C5.475 13.99 5.475 13.99 8 15 C8 15.99 8 16.98 8 18 C5.125 18.125 5.125 18.125 2 18 C0 16 0 16 -0.1953125 12.3046875 C-0.182009 10.82799892 -0.15814835 9.35137642 -0.125 7.875 C-0.11146484 6.74384766 -0.11146484 6.74384766 -0.09765625 5.58984375 C-0.0740687 3.72642746 -0.03819719 1.86317407 0 0 Z "
    fill="#828989" transform="translate(456,560)" />
  <path
    d="M0 0 C0.66 0 1.32 0 2 0 C2 5.94 2 11.88 2 18 C1.01 18 0.02 18 -1 18 C-1.02684312 15.18743719 -1.04676188 12.37512759 -1.0625 9.5625 C-1.07087891 8.76005859 -1.07925781 7.95761719 -1.08789062 7.13085938 C-1.0965143 5.08704779 -1.0522815 3.04316098 -1 1 C-0.67 0.67 -0.34 0.34 0 0 Z "
    fill="#8B8E8F" transform="translate(516,560)" />
  <path
    d="M0 0 C0.7734375 -0.01675781 1.546875 -0.03351562 2.34375 -0.05078125 C4.97015897 0.39171157 5.83557103 1.29064557 7.5 3.3125 C6.84 4.6325 6.18 5.9525 5.5 7.3125 C4.84 6.3225 4.18 5.3325 3.5 4.3125 C-0.35119054 4.02722663 -3.80992118 4.13167478 -7.5 5.3125 C-7.5 4.3225 -7.5 3.3325 -7.5 2.3125 C-4.40219052 0.24729368 -3.5459519 0.01772976 0 0 Z "
    fill="#97979A" transform="translate(645.5,556.6875)" />
  <path
    d="M0 0 C0.66 0 1.32 0 2 0 C2 0.66 2 1.32 2 2 C6.16138263 2.08159574 9.9472484 1.98248524 14 1 C12.25 4.875 12.25 4.875 10 6 C3.75206612 6.46280992 3.75206612 6.46280992 0.5625 4.5 C0.046875 4.005 -0.46875 3.51 -1 3 C-0.67 2.01 -0.34 1.02 0 0 Z "
    fill="#8C9091" transform="translate(413,572)" />
  <path
    d="M0 0 C2.5 2 2.5 2 4 4 C3.67 4.66 3.34 5.32 3 6 C2.46375 5.67 1.9275 5.34 1.375 5 C-2.59671095 3.32770065 -5.97077453 3.65692484 -10 5 C-10 3.68 -10 2.36 -10 1 C-6.81225917 -0.59387042 -3.46072041 -0.52663137 0 0 Z "
    fill="#8B8E8F" transform="translate(629,557)" />
  <path
    d="M0 0 C4.12751449 0.60698743 7.3321148 2.03810791 11 4 C10.01 4.495 10.01 4.495 9 5 C9 6.98 9 8.96 9 11 C8.835 10.401875 8.67 9.80375 8.5 9.1875 C6.18723796 5.81472202 2.80108663 5.1668452 -1 4 C-0.67 2.68 -0.34 1.36 0 0 Z "
    fill="#999C9E" transform="translate(679,561)" />
  <path
    d="M0 0 C0.99 0.99 1.98 1.98 3 3 C1.25 6.875 1.25 6.875 -1 8 C-4 8.1875 -4 8.1875 -7 8 C-7.66 7.34 -8.32 6.68 -9 6 C-7 4 -7 4 -3.875 3.875 C-2.92625 3.91625 -1.9775 3.9575 -1 4 C-0.67 2.68 -0.34 1.36 0 0 Z "
    fill="#95989A" transform="translate(755,570)" />
  <path
    d="M0 0 C3 1 3 1 4 3 C4.06996014 4.70702735 4.08440154 6.41668003 4.0625 8.125 C4.05347656 9.03507813 4.04445313 9.94515625 4.03515625 10.8828125 C4.02355469 11.58148437 4.01195312 12.28015625 4 13 C3.01 13.495 3.01 13.495 2 14 C1.47216999 11.85587698 0.95290681 9.70964319 0.4375 7.5625 C0.00244141 5.77005859 0.00244141 5.77005859 -0.44140625 3.94140625 C-0.62574219 2.97074219 -0.81007813 2.00007812 -1 1 C-0.67 0.67 -0.34 0.34 0 0 Z "
    fill="#86898B" transform="translate(755,559)" />
  <path
    d="M0 0 C0.33 0 0.66 0 1 0 C1 6.27 1 12.54 1 19 C-2.61290323 15.38709677 -2.61290323 15.38709677 -3 12 C-2.72949547 9.99053778 -2.40632091 7.98645776 -2 6 C-1.67 6 -1.34 6 -1 6 C-0.67 4.02 -0.34 2.04 0 0 Z "
    fill="#6EC1DE" transform="translate(215,532)" />
  <path
    d="M0 0 C0.99 0.33 1.98 0.66 3 1 C1.25 4.875 1.25 4.875 -1 6 C-3.6723621 6.13415472 -6.32250488 6.04318541 -9 6 C-9.33 4.35 -9.66 2.7 -10 1 C-7.98177083 1.32552083 -5.96354167 1.65104167 -3.9453125 1.9765625 C-2.98238281 1.98816406 -2.98238281 1.98816406 -2 2 C-1.34 1.34 -0.68 0.68 0 0 Z "
    fill="#989B9D" transform="translate(789,572)" />
  <path
    d="M0 0 C2.71675995 0.36712972 4.61063713 0.72744599 6.875 2.3125 C8 4 8 4 7.6875 6.1875 C7.3471875 7.0846875 7.3471875 7.0846875 7 8 C6.0925 7.38125 5.185 6.7625 4.25 6.125 C1.85051183 4.55610389 -0.40961612 3.19556179 -3 2 C-2.01 2 -1.02 2 0 2 C0 1.34 0 0.68 0 0 Z "
    fill="#8F9294" transform="translate(396,549)" />
  <path
    d="M0 0 C1.1446875 1.175625 1.1446875 1.175625 2.3125 2.375 C4.90891805 5.07257717 4.90891805 5.07257717 8 7 C8 7.99 8 8.98 8 10 C5.37344067 9.64505955 3.42031739 9.27538036 1.1875 7.8125 C-0.51995571 5.20638339 -0.20267097 3.0400645 0 0 Z "
    fill="#909395" transform="translate(671,554)" />
  <path
    d="M0 0 C1.98 0 3.96 0 6 0 C6 0.99 6 1.98 6 3 C4.35 3 2.7 3 1 3 C1 7.29 1 11.58 1 16 C0.67 16 0.34 16 0 16 C0 10.72 0 5.44 0 0 Z "
    fill="#AEB0B1" transform="translate(458,557)" />
  <path
    d="M0 0 C0.99 0.33 1.98 0.66 3 1 C3.25 6.625 3.25 6.625 1 10 C0.01 9.67 -0.98 9.34 -2 9 C-1.34 6.03 -0.68 3.06 0 0 Z "
    fill="#868C8F" transform="translate(688,566)" />
  <path
    d="M0 0 C0.99 0.33 1.98 0.66 3 1 C3 2.32 3 3.64 3 5 C-0.3 5 -3.6 5 -7 5 C-7 4.34 -7 3.68 -7 3 C-4.69 3 -2.38 3 0 3 C0 2.01 0 1.02 0 0 Z "
    fill="#898B8B" transform="translate(425,563)" />
  <path
    d="M0 0 C-0.33 0.99 -0.66 1.98 -1 3 C-7.625 4 -7.625 4 -11 4 C-10.67 3.01 -10.34 2.02 -10 1 C-6.78548731 -0.60725635 -3.56387464 -0.05748185 0 0 Z "
    fill="#9A9B9E" transform="translate(788,557)" />
  <path
    d="M0 0 C0.66 0.99 1.32 1.98 2 3 C2.99 3.33 3.98 3.66 5 4 C5 4.99 5 5.98 5 7 C2.625 7.125 2.625 7.125 0 7 C-0.66 6.34 -1.32 5.68 -2 5 C-1.46428571 1.46428571 -1.46428571 1.46428571 0 0 Z "
    fill="#888E91" transform="translate(564,571)" />
  <path
    d="M0 0 C2.64 0 5.28 0 8 0 C7.67 2.31 7.34 4.62 7 7 C6.67 5.68 6.34 4.36 6 3 C4.02 3 2.04 3 0 3 C0 2.01 0 1.02 0 0 Z "
    fill="#8E9495" transform="translate(395,563)" />
  <path
    d="M0 0 C0.66 0 1.32 0 2 0 C1.71572583 1.58467728 1.42225182 3.1677057 1.125 4.75 C0.88136719 6.07257812 0.88136719 6.07257812 0.6328125 7.421875 C0.03203736 9.86947744 -0.77997117 11.80599857 -2 14 C-2.05437607 12.41705218 -2.09296271 10.83355744 -2.125 9.25 C-2.14820313 8.36828125 -2.17140625 7.4865625 -2.1953125 6.578125 C-1.99139502 3.8864142 -1.36551721 2.30095026 0 0 Z "
    fill="#A3A4A5" transform="translate(536,554)" />
  <path
    d="M0 0 C2 1 4 2 6 3 C6 3.66 6 4.32 6 5 C4.1875 5.6875 4.1875 5.6875 2 6 C0.25 4.5625 0.25 4.5625 -1 3 C-0.67 2.01 -0.34 1.02 0 0 Z "
    fill="#949A9C" transform="translate(671,571)" />
  <path
    d="M0 0 C1.32 0 2.64 0 4 0 C3.25 2.4375 3.25 2.4375 2 5 C-0.125 5.8125 -0.125 5.8125 -2 6 C-1.49396008 3.83125748 -1.00016187 2.00032373 0 0 Z "
    fill="#878F94" transform="translate(553,570)" />
  <path
    d="M0 0 C1.32 0.33 2.64 0.66 4 1 C4.33 2.98 4.66 4.96 5 7 C4.01 7.495 4.01 7.495 3 8 C0 3.375 0 3.375 0 0 Z "
    fill="#898C8C" transform="translate(444,567)" />
  <path
    d="M0 0 C1.8125 0.1875 1.8125 0.1875 4 1 C5.75 3.5625 5.75 3.5625 7 6 C6.34 6.66 5.68 7.32 5 8 C2.74754119 5.31158141 1.11786042 3.35358125 0 0 Z "
    fill="#196093" transform="translate(230,566)" />
  <path
    d="M0 0 C-2.17384564 2.17384564 -4.31270474 3.52198761 -7 5 C-7.66 5 -8.32 5 -9 5 C-9 3.68 -9 2.36 -9 1 C-6.04335481 -0.4783226 -3.25770263 -0.06032783 0 0 Z "
    fill="#838588" transform="translate(628,557)" />
  <path
    d="M0 0 C0.33 0 0.66 0 1 0 C1.66 3.3 2.32 6.6 3 10 C0 11 0 11 -3 10 C-2.34 10 -1.68 10 -1 10 C-0.67 6.7 -0.34 3.4 0 0 Z "
    fill="#9C9FA0" transform="translate(492,564)" />
  <path
    d="M0 0 C2.475 0.99 2.475 0.99 5 2 C5 2.99 5 3.98 5 5 C1.7 4.34 -1.6 3.68 -5 3 C-5 2.67 -5 2.34 -5 2 C-3.35 2 -1.7 2 0 2 C0 1.34 0 0.68 0 0 Z "
    fill="#999A9C" transform="translate(443,557)" />
  <path
    d="M0 0 C1.134375 0.020625 2.26875 0.04125 3.4375 0.0625 C3.4375 0.7225 3.4375 1.3825 3.4375 2.0625 C0.7975 2.7225 -1.8425 3.3825 -4.5625 4.0625 C-4.5625 -0.28271095 -4.43767807 0.077854 0 0 Z "
    fill="#888889" transform="translate(439.5625,556.9375)" />
  <path
    d="M0 0 C1.32 0.33 2.64 0.66 4 1 C2.68 2.65 1.36 4.3 0 6 C-0.99 5.67 -1.98 5.34 -3 5 C-2.01 3.35 -1.02 1.7 0 0 Z "
    fill="#939799" transform="translate(577,547)" />
  <path
    d="M0 0 C0.99 0 1.98 0 3 0 C1.95125002 2.62187494 1.35068687 3.79371361 -1.125 5.25 C-1.74375 5.4975 -2.3625 5.745 -3 6 C-1.125 1.125 -1.125 1.125 0 0 Z "
    fill="#8E9293" transform="translate(488,548)" />
  <path
    d="M0 0 C0.99 0.33 1.98 0.66 3 1 C3 2.32 3 3.64 3 5 C1.68 5 0.36 5 -1 5 C-0.67 3.35 -0.34 1.7 0 0 Z "
    fill="#94989B" transform="translate(799,573)" />
  <path
    d="M0 0 C2.5 1.375 2.5 1.375 5 3 C5 3.66 5 4.32 5 5 C2.03 4.505 2.03 4.505 -1 4 C-0.67 2.68 -0.34 1.36 0 0 Z "
    fill="#898F92" transform="translate(387,572)" />
  <path
    d="M0 0 C2.475 0.495 2.475 0.495 5 1 C5 2.32 5 3.64 5 5 C3.0625 4.1875 3.0625 4.1875 1 3 C0.67 2.01 0.34 1.02 0 0 Z "
    fill="#848688" transform="translate(715,557)" />
  <path
    d="M0 0 C3.20395416 0 5.09399739 0.74335022 8 2 C4.91190305 3.76462683 3.76687864 4 0 4 C0 2.68 0 1.36 0 0 Z "
    fill="#9E9FA2" transform="translate(504,557)" />
  <path
    d="M0 0 C1.32 0.66 2.64 1.32 4 2 C4 2.99 4 3.98 4 5 C1.03824877 4.38722388 -0.38058783 3.74627478 -3 2 C-2.01 1.34 -1.02 0.68 0 0 Z "
    fill="#8C9195" transform="translate(686,550)" />
  <path
    d="M0 0 C0.66 0.33 1.32 0.66 2 1 C1.34 1.66 0.68 2.32 0 3 C-0.64767793 5.57061311 -0.64767793 5.57061311 -1 8 C-1.99 7.34 -2.98 6.68 -4 6 C-2.84826645 3.53199953 -1.95216435 1.95216435 0 0 Z "
    fill="#246796" transform="translate(455,475)" />
  <path
    d="M0 0 C0.99 0 1.98 0 3 0 C2.74438677 2.3431213 2.40729228 4.67843403 2 7 C1.01 7.495 1.01 7.495 0 8 C0 5.36 0 2.72 0 0 Z "
    fill="#858785" transform="translate(742,561)" />
  <path
    d="M0 0 C1.32 0.33 2.64 0.66 4 1 C4 2.32 4 3.64 4 5 C3.01 5.495 3.01 5.495 2 6 C1.34 4.02 0.68 2.04 0 0 Z "
    fill="#909394" transform="translate(648,558)" />
  <path
    d="M0 0 C2.375 0.25 2.375 0.25 5 1 C6.3125 3.0625 6.3125 3.0625 7 5 C3.34683329 3.75023244 2.21934164 3.32901247 0 0 Z "
    fill="#1E6A9E" transform="translate(451,522)" />
</svg>